<svg width="8" height="6" viewBox="0 0 8 6" fill="none" xmlns="http://www.w3.org/2000/svg">
<path d="M1.53033 2.46967C1.23744 2.17678 0.762563 2.17678 0.46967 2.46967C0.176777 2.76256 0.176777 3.23744 0.46967 3.53033L1.53033 2.46967ZM3 5L2.46967 5.53033C2.76256 5.82322 3.23743 5.82322 3.53033 5.53033L3 5ZM7.53033 1.53033C7.82322 1.23744 7.82322 0.762564 7.53033 0.46967C7.23744 0.176777 6.76256 0.176776 6.46967 0.469669L7.53033 1.53033ZM3.53033 4.46967L1.53033 2.46967L0.46967 3.53033L2.46967 5.53033L3.53033 4.46967ZM3.53033 5.53033L7.53033 1.53033L6.46967 0.469669L2.46967 4.46967L3.53033 5.53033Z" fill="white"/>
</svg>
