<svg width="27" height="27" viewBox="0 0 27 27" fill="none" xmlns="http://www.w3.org/2000/svg">
<circle cx="13.5" cy="13.5" r="13.5" fill="#9BE76E"/>
<path d="M8.4292 12.9909C8.14802 12.7097 7.69214 12.7097 7.41097 12.9909C7.12979 13.2721 7.12979 13.728 7.41097 14.0092L8.4292 12.9909ZM11.8351 17.415L11.326 17.9242C11.6071 18.2053 12.063 18.2053 12.3442 17.9242L11.8351 17.415ZM20.1742 10.0942C20.4554 9.81298 20.4554 9.3571 20.1742 9.07592C19.893 8.79474 19.4371 8.79474 19.156 9.07592L20.1742 10.0942ZM12.3442 16.9059L8.4292 12.9909L7.41097 14.0092L11.326 17.9242L12.3442 16.9059ZM12.3442 17.9242L20.1742 10.0942L19.156 9.07592L11.326 16.9059L12.3442 17.9242Z" fill="white"/>
</svg>
